<?xml version="1.0" encoding="UTF-8" standalone="no"?><!DOCTYPE svg PUBLIC "-//W3C//DTD SVG 1.1//EN" "http://www.w3.org/Graphics/SVG/1.1/DTD/svg11.dtd"><!-- Generated by graphviz version 2.40.1 (20161225.0304)
 --><!-- Title: Model Pages: 1 --><svg xmlns="http://www.w3.org/2000/svg" xmlns:xlink="http://www.w3.org/1999/xlink" width="474pt" height="817pt" viewBox="0.00 0.00 473.97 817.00">
<g id="graph0" class="graph" transform="scale(1 1) rotate(0) translate(4 813)">
<title>Model</title>
<polygon fill="#ffffff" stroke="transparent" points="-4,4 -4,-813 469.973,-813 469.973,4 -4,4"/>
<!-- node0 -->
<g id="node1" class="node">
<title>node0</title>
<path fill="transparent" stroke="#000000" d="M143.919,-581.4C143.919,-581.4 12.027,-581.4 12.027,-581.4 6.027,-581.4 .027,-575.4 .027,-569.4 .027,-569.4 .027,-557.4 .027,-557.4 .027,-551.4 6.027,-545.4 12.027,-545.4 12.027,-545.4 143.919,-545.4 143.919,-545.4 149.919,-545.4 155.919,-551.4 155.919,-557.4 155.919,-557.4 155.919,-569.4 155.919,-569.4 155.919,-575.4 149.919,-581.4 143.919,-581.4"/>
<text text-anchor="middle" x="77.973" y="-560.4" font-family="Times,serif" font-size="10.00" fill="#0000ff">playerSkills[winners[gameRange]]</text>
</g>
<!-- node1 -->
<g id="node2" class="node">
<title>node1</title>
<path fill="#000000" stroke="#000000" d="M228.486,-499.8C228.486,-499.8 129.46,-499.8 129.46,-499.8 123.46,-499.8 117.46,-493.8 117.46,-487.8 117.46,-487.8 117.46,-475.8 117.46,-475.8 117.46,-469.8 123.46,-463.8 129.46,-463.8 129.46,-463.8 228.486,-463.8 228.486,-463.8 234.486,-463.8 240.486,-469.8 240.486,-475.8 240.486,-475.8 240.486,-487.8 240.486,-487.8 240.486,-493.8 234.486,-499.8 228.486,-499.8"/>
<text text-anchor="middle" x="178.973" y="-479.4" font-family="Times,serif" font-size="8.00" fill="#ffffff">GaussianFromMeanAndVariance</text>
</g>
<!-- node0&#45;&gt;node1 -->
<g id="edge1" class="edge">
<title>node0-&gt;node1</title>
<path fill="none" stroke="#000000" d="M100.3882,-545.2903C114.6411,-533.7751 133.2705,-518.724 148.8134,-506.1666"/>
<polygon fill="#000000" stroke="#000000" points="151.0415,-508.866 156.6205,-499.8591 146.6424,-503.421 151.0415,-508.866"/>
<text text-anchor="middle" x="140.6358" y="-520.2" font-family="Times,serif" font-size="8.00" fill="#d3d3d3">mean</text>
</g>
<!-- node3 -->
<g id="node4" class="node">
<title>node3</title>
<path fill="transparent" stroke="#000000" d="M241.1823,-426.8C241.1823,-426.8 116.7637,-426.8 116.7637,-426.8 110.7637,-426.8 104.7637,-420.8 104.7637,-414.8 104.7637,-414.8 104.7637,-402.8 104.7637,-402.8 104.7637,-396.8 110.7637,-390.8 116.7637,-390.8 116.7637,-390.8 241.1823,-390.8 241.1823,-390.8 247.1823,-390.8 253.1823,-396.8 253.1823,-402.8 253.1823,-402.8 253.1823,-414.8 253.1823,-414.8 253.1823,-420.8 247.1823,-426.8 241.1823,-426.8"/>
<text text-anchor="middle" x="178.973" y="-405.8" font-family="Times,serif" font-size="10.00" fill="#0000ff">winnerPerformance[gameRange]</text>
</g>
<!-- node1&#45;&gt;node3 -->
<g id="edge3" class="edge">
<title>node1-&gt;node3</title>
<path fill="none" stroke="#000000" d="M178.973,-463.7551C178.973,-455.6828 178.973,-445.9764 178.973,-436.9817"/>
<polygon fill="#000000" stroke="#000000" points="182.4731,-436.8903 178.973,-426.8904 175.4731,-436.8904 182.4731,-436.8903"/>
</g>
<!-- node2 -->
<g id="node3" class="node">
<title>node2</title>
<path fill="transparent" stroke="transparent" d="M215.973,-581.4C215.973,-581.4 185.973,-581.4 185.973,-581.4 179.973,-581.4 173.973,-575.4 173.973,-569.4 173.973,-569.4 173.973,-557.4 173.973,-557.4 173.973,-551.4 179.973,-545.4 185.973,-545.4 185.973,-545.4 215.973,-545.4 215.973,-545.4 221.973,-545.4 227.973,-551.4 227.973,-557.4 227.973,-557.4 227.973,-569.4 227.973,-569.4 227.973,-575.4 221.973,-581.4 215.973,-581.4"/>
<text text-anchor="middle" x="200.973" y="-560.7" font-family="Times,serif" font-size="9.00" fill="#000000">1</text>
</g>
<!-- node2&#45;&gt;node1 -->
<g id="edge2" class="edge">
<title>node2-&gt;node1</title>
<path fill="none" stroke="#000000" d="M196.0905,-545.2903C193.2707,-534.8315 189.6645,-521.4559 186.4899,-509.681"/>
<polygon fill="#000000" stroke="#000000" points="189.8244,-508.6032 183.8419,-499.8591 183.0657,-510.4254 189.8244,-508.6032"/>
<text text-anchor="middle" x="203.5186" y="-520.2" font-family="Times,serif" font-size="8.00" fill="#d3d3d3">variance</text>
</g>
<!-- node8 -->
<g id="node9" class="node">
<title>node8</title>
<path fill="#000000" stroke="#000000" d="M274.973,-345.2C274.973,-345.2 244.973,-345.2 244.973,-345.2 238.973,-345.2 232.973,-339.2 232.973,-333.2 232.973,-333.2 232.973,-321.2 232.973,-321.2 232.973,-315.2 238.973,-309.2 244.973,-309.2 244.973,-309.2 274.973,-309.2 274.973,-309.2 280.973,-309.2 286.973,-315.2 286.973,-321.2 286.973,-321.2 286.973,-333.2 286.973,-333.2 286.973,-339.2 280.973,-345.2 274.973,-345.2"/>
<text text-anchor="middle" x="259.973" y="-324.8" font-family="Times,serif" font-size="8.00" fill="#ffffff">Minus</text>
</g>
<!-- node3&#45;&gt;node8 -->
<g id="edge7" class="edge">
<title>node3-&gt;node8</title>
<path fill="none" stroke="#000000" d="M196.9495,-390.6903C208.0655,-379.492 222.5008,-364.9498 234.7509,-352.6089"/>
<polygon fill="#000000" stroke="#000000" points="237.4858,-354.8219 242.0467,-345.2591 232.5178,-349.8905 237.4858,-354.8219"/>
<text text-anchor="middle" x="222.7486" y="-365.6" font-family="Times,serif" font-size="8.00" fill="#d3d3d3">a</text>
</g>
<!-- node4 -->
<g id="node5" class="node">
<title>node4</title>
<path fill="transparent" stroke="#000000" d="M381.5895,-581.4C381.5895,-581.4 258.3565,-581.4 258.3565,-581.4 252.3565,-581.4 246.3565,-575.4 246.3565,-569.4 246.3565,-569.4 246.3565,-557.4 246.3565,-557.4 246.3565,-551.4 252.3565,-545.4 258.3565,-545.4 258.3565,-545.4 381.5895,-545.4 381.5895,-545.4 387.5895,-545.4 393.5895,-551.4 393.5895,-557.4 393.5895,-557.4 393.5895,-569.4 393.5895,-569.4 393.5895,-575.4 387.5895,-581.4 381.5895,-581.4"/>
<text text-anchor="middle" x="319.973" y="-560.4" font-family="Times,serif" font-size="10.00" fill="#0000ff">playerSkills[losers[gameRange]]</text>
</g>
<!-- node5 -->
<g id="node6" class="node">
<title>node5</title>
<path fill="#000000" stroke="#000000" d="M391.486,-499.8C391.486,-499.8 292.46,-499.8 292.46,-499.8 286.46,-499.8 280.46,-493.8 280.46,-487.8 280.46,-487.8 280.46,-475.8 280.46,-475.8 280.46,-469.8 286.46,-463.8 292.46,-463.8 292.46,-463.8 391.486,-463.8 391.486,-463.8 397.486,-463.8 403.486,-469.8 403.486,-475.8 403.486,-475.8 403.486,-487.8 403.486,-487.8 403.486,-493.8 397.486,-499.8 391.486,-499.8"/>
<text text-anchor="middle" x="341.973" y="-479.4" font-family="Times,serif" font-size="8.00" fill="#ffffff">GaussianFromMeanAndVariance</text>
</g>
<!-- node4&#45;&gt;node5 -->
<g id="edge4" class="edge">
<title>node4-&gt;node5</title>
<path fill="none" stroke="#000000" d="M324.8555,-545.2903C327.6753,-534.8315 331.2815,-521.4559 334.4561,-509.681"/>
<polygon fill="#000000" stroke="#000000" points="337.8803,-510.4254 337.1041,-499.8591 331.1216,-508.6032 337.8803,-510.4254"/>
<text text-anchor="middle" x="339.6358" y="-520.2" font-family="Times,serif" font-size="8.00" fill="#d3d3d3">mean</text>
</g>
<!-- node7 -->
<g id="node8" class="node">
<title>node7</title>
<path fill="transparent" stroke="#000000" d="M400.3525,-426.8C400.3525,-426.8 283.5935,-426.8 283.5935,-426.8 277.5935,-426.8 271.5935,-420.8 271.5935,-414.8 271.5935,-414.8 271.5935,-402.8 271.5935,-402.8 271.5935,-396.8 277.5935,-390.8 283.5935,-390.8 283.5935,-390.8 400.3525,-390.8 400.3525,-390.8 406.3525,-390.8 412.3525,-396.8 412.3525,-402.8 412.3525,-402.8 412.3525,-414.8 412.3525,-414.8 412.3525,-420.8 406.3525,-426.8 400.3525,-426.8"/>
<text text-anchor="middle" x="341.973" y="-405.8" font-family="Times,serif" font-size="10.00" fill="#0000ff">loserPerformance[gameRange]</text>
</g>
<!-- node5&#45;&gt;node7 -->
<g id="edge6" class="edge">
<title>node5-&gt;node7</title>
<path fill="none" stroke="#000000" d="M341.973,-463.7551C341.973,-455.6828 341.973,-445.9764 341.973,-436.9817"/>
<polygon fill="#000000" stroke="#000000" points="345.4731,-436.8903 341.973,-426.8904 338.4731,-436.8904 345.4731,-436.8903"/>
</g>
<!-- node6 -->
<g id="node7" class="node">
<title>node6</title>
<path fill="transparent" stroke="transparent" d="M453.973,-581.4C453.973,-581.4 423.973,-581.4 423.973,-581.4 417.973,-581.4 411.973,-575.4 411.973,-569.4 411.973,-569.4 411.973,-557.4 411.973,-557.4 411.973,-551.4 417.973,-545.4 423.973,-545.4 423.973,-545.4 453.973,-545.4 453.973,-545.4 459.973,-545.4 465.973,-551.4 465.973,-557.4 465.973,-557.4 465.973,-569.4 465.973,-569.4 465.973,-575.4 459.973,-581.4 453.973,-581.4"/>
<text text-anchor="middle" x="438.973" y="-560.7" font-family="Times,serif" font-size="9.00" fill="#000000">1</text>
</g>
<!-- node6&#45;&gt;node5 -->
<g id="edge5" class="edge">
<title>node6-&gt;node5</title>
<path fill="none" stroke="#000000" d="M417.4456,-545.2903C403.8827,-533.8807 386.1934,-518.9998 371.3497,-506.5128"/>
<polygon fill="#000000" stroke="#000000" points="373.3458,-503.6182 363.4403,-499.8591 368.8395,-508.9749 373.3458,-503.6182"/>
<text text-anchor="middle" x="406.5186" y="-520.2" font-family="Times,serif" font-size="8.00" fill="#d3d3d3">variance</text>
</g>
<!-- node7&#45;&gt;node8 -->
<g id="edge8" class="edge">
<title>node7-&gt;node8</title>
<path fill="none" stroke="#000000" d="M323.7745,-390.6903C312.5213,-379.492 297.9078,-364.9498 285.5065,-352.6089"/>
<polygon fill="#000000" stroke="#000000" points="287.6778,-349.8319 278.1206,-345.2591 282.7401,-354.7938 287.6778,-349.8319"/>
<text text-anchor="middle" x="304.973" y="-365.6" font-family="Times,serif" font-size="8.00" fill="#d3d3d3">b</text>
</g>
<!-- node9 -->
<g id="node10" class="node">
<title>node9</title>
<path fill="transparent" stroke="#000000" d="M304.053,-272.2C304.053,-272.2 215.893,-272.2 215.893,-272.2 209.893,-272.2 203.893,-266.2 203.893,-260.2 203.893,-260.2 203.893,-248.2 203.893,-248.2 203.893,-242.2 209.893,-236.2 215.893,-236.2 215.893,-236.2 304.053,-236.2 304.053,-236.2 310.053,-236.2 316.053,-242.2 316.053,-248.2 316.053,-248.2 316.053,-260.2 316.053,-260.2 316.053,-266.2 310.053,-272.2 304.053,-272.2"/>
<text text-anchor="middle" x="259.973" y="-251.2" font-family="Times,serif" font-size="10.00" fill="#0000ff">vdouble12[gameRange]</text>
</g>
<!-- node8&#45;&gt;node9 -->
<g id="edge9" class="edge">
<title>node8-&gt;node9</title>
<path fill="none" stroke="#000000" d="M259.973,-309.1551C259.973,-301.0828 259.973,-291.3764 259.973,-282.3817"/>
<polygon fill="#000000" stroke="#000000" points="263.4731,-282.2903 259.973,-272.2904 256.4731,-282.2904 263.4731,-282.2903"/>
</g>
<!-- node10 -->
<g id="node11" class="node">
<title>node10</title>
<path fill="#000000" stroke="#000000" d="M274.973,-190.6C274.973,-190.6 244.973,-190.6 244.973,-190.6 238.973,-190.6 232.973,-184.6 232.973,-178.6 232.973,-178.6 232.973,-166.6 232.973,-166.6 232.973,-160.6 238.973,-154.6 244.973,-154.6 244.973,-154.6 274.973,-154.6 274.973,-154.6 280.973,-154.6 286.973,-160.6 286.973,-166.6 286.973,-166.6 286.973,-178.6 286.973,-178.6 286.973,-184.6 280.973,-190.6 274.973,-190.6"/>
<text text-anchor="middle" x="259.973" y="-170.2" font-family="Times,serif" font-size="8.00" fill="#ffffff">IsPositive</text>
</g>
<!-- node9&#45;&gt;node10 -->
<g id="edge10" class="edge">
<title>node9-&gt;node10</title>
<path fill="none" stroke="#000000" d="M259.973,-236.0903C259.973,-225.7371 259.973,-212.5258 259.973,-200.8383"/>
<polygon fill="#000000" stroke="#000000" points="263.4731,-200.659 259.973,-190.6591 256.4731,-200.6591 263.4731,-200.659"/>
<text text-anchor="middle" x="261.973" y="-211" font-family="Times,serif" font-size="8.00" fill="#d3d3d3">x</text>
</g>
<!-- node11 -->
<g id="node12" class="node">
<title>node11</title>
<path fill="transparent" stroke="#000000" d="M296.6147,-117.6C296.6147,-117.6 223.3313,-117.6 223.3313,-117.6 217.3313,-117.6 211.3313,-111.6 211.3313,-105.6 211.3313,-105.6 211.3313,-93.6 211.3313,-93.6 211.3313,-87.6 217.3313,-81.6 223.3313,-81.6 223.3313,-81.6 296.6147,-81.6 296.6147,-81.6 302.6147,-81.6 308.6147,-87.6 308.6147,-93.6 308.6147,-93.6 308.6147,-105.6 308.6147,-105.6 308.6147,-111.6 302.6147,-117.6 296.6147,-117.6"/>
<text text-anchor="middle" x="259.973" y="-96.6" font-family="Times,serif" font-size="10.00" fill="#0000ff">vbool0[gameRange]</text>
</g>
<!-- node10&#45;&gt;node11 -->
<g id="edge11" class="edge">
<title>node10-&gt;node11</title>
<path fill="none" stroke="#000000" d="M259.973,-154.5551C259.973,-146.4828 259.973,-136.7764 259.973,-127.7817"/>
<polygon fill="#000000" stroke="#000000" points="263.4731,-127.6903 259.973,-117.6904 256.4731,-127.6904 263.4731,-127.6903"/>
</g>
<!-- node13 -->
<g id="node14" class="node">
<title>node13</title>
<path fill="#000000" stroke="#000000" d="M194.973,-36C194.973,-36 164.973,-36 164.973,-36 158.973,-36 152.973,-30 152.973,-24 152.973,-24 152.973,-12 152.973,-12 152.973,-6 158.973,0 164.973,0 164.973,0 194.973,0 194.973,0 200.973,0 206.973,-6 206.973,-12 206.973,-12 206.973,-24 206.973,-24 206.973,-30 200.973,-36 194.973,-36"/>
<text text-anchor="middle" x="179.973" y="-15.6" font-family="Times,serif" font-size="8.00" fill="#ffffff">Equal</text>
</g>
<!-- node11&#45;&gt;node13 -->
<g id="edge13" class="edge">
<title>node11-&gt;node13</title>
<path fill="none" stroke="#000000" d="M242.2184,-81.4903C231.2397,-70.292 216.9826,-55.7498 204.8837,-43.4089"/>
<polygon fill="#000000" stroke="#000000" points="207.178,-40.7496 197.678,-36.0591 202.1794,-45.6501 207.178,-40.7496"/>
<text text-anchor="middle" x="224.6406" y="-56.4" font-family="Times,serif" font-size="8.00" fill="#d3d3d3">B</text>
</g>
<!-- node12 -->
<g id="node13" class="node">
<title>node12</title>
<path fill="transparent" stroke="transparent" d="M180.973,-117.6C180.973,-117.6 150.973,-117.6 150.973,-117.6 144.973,-117.6 138.973,-111.6 138.973,-105.6 138.973,-105.6 138.973,-93.6 138.973,-93.6 138.973,-87.6 144.973,-81.6 150.973,-81.6 150.973,-81.6 180.973,-81.6 180.973,-81.6 186.973,-81.6 192.973,-87.6 192.973,-93.6 192.973,-93.6 192.973,-105.6 192.973,-105.6 192.973,-111.6 186.973,-117.6 180.973,-117.6"/>
<text text-anchor="middle" x="165.973" y="-96.9" font-family="Times,serif" font-size="9.00" fill="#000000">True</text>
</g>
<!-- node12&#45;&gt;node13 -->
<g id="edge12" class="edge">
<title>node12-&gt;node13</title>
<path fill="none" stroke="#000000" d="M169.0801,-81.4903C170.8563,-71.1371 173.123,-57.9258 175.1282,-46.2383"/>
<polygon fill="#000000" stroke="#000000" points="178.6332,-46.5069 176.8746,-36.0591 171.734,-45.3232 178.6332,-46.5069"/>
<text text-anchor="middle" x="175.8606" y="-56.4" font-family="Times,serif" font-size="8.00" fill="#d3d3d3">A</text>
</g>
<!-- node14 -->
<g id="node15" class="node">
<title>node14</title>
<path fill="transparent" stroke="transparent" d="M176.973,-809C176.973,-809 146.973,-809 146.973,-809 140.973,-809 134.973,-803 134.973,-797 134.973,-797 134.973,-785 134.973,-785 134.973,-779 140.973,-773 146.973,-773 146.973,-773 176.973,-773 176.973,-773 182.973,-773 188.973,-779 188.973,-785 188.973,-785 188.973,-797 188.973,-797 188.973,-803 182.973,-809 176.973,-809"/>
<text text-anchor="middle" x="161.973" y="-788.3" font-family="Times,serif" font-size="9.00" fill="#000000">6</text>
</g>
<!-- node15 -->
<g id="node16" class="node">
<title>node15</title>
<path fill="#000000" stroke="#000000" d="M247.486,-727.4C247.486,-727.4 148.46,-727.4 148.46,-727.4 142.46,-727.4 136.46,-721.4 136.46,-715.4 136.46,-715.4 136.46,-703.4 136.46,-703.4 136.46,-697.4 142.46,-691.4 148.46,-691.4 148.46,-691.4 247.486,-691.4 247.486,-691.4 253.486,-691.4 259.486,-697.4 259.486,-703.4 259.486,-703.4 259.486,-715.4 259.486,-715.4 259.486,-721.4 253.486,-727.4 247.486,-727.4"/>
<text text-anchor="middle" x="197.973" y="-707" font-family="Times,serif" font-size="8.00" fill="#ffffff">GaussianFromMeanAndVariance</text>
</g>
<!-- node14&#45;&gt;node15 -->
<g id="edge14" class="edge">
<title>node14-&gt;node15</title>
<path fill="none" stroke="#000000" d="M169.9626,-772.8903C174.6234,-762.3259 180.5971,-748.7854 185.8297,-736.9247"/>
<polygon fill="#000000" stroke="#000000" points="189.1715,-738.021 190.0058,-727.4591 182.7671,-735.1955 189.1715,-738.021"/>
<text text-anchor="middle" x="189.6358" y="-747.8" font-family="Times,serif" font-size="8.00" fill="#d3d3d3">mean</text>
</g>
<!-- node17 -->
<g id="node18" class="node">
<title>node17</title>
<path fill="transparent" stroke="#000000" d="M246.4949,-654.4C246.4949,-654.4 149.4511,-654.4 149.4511,-654.4 143.4511,-654.4 137.4511,-648.4 137.4511,-642.4 137.4511,-642.4 137.4511,-630.4 137.4511,-630.4 137.4511,-624.4 143.4511,-618.4 149.4511,-618.4 149.4511,-618.4 246.4949,-618.4 246.4949,-618.4 252.4949,-618.4 258.4949,-624.4 258.4949,-630.4 258.4949,-630.4 258.4949,-642.4 258.4949,-642.4 258.4949,-648.4 252.4949,-654.4 246.4949,-654.4"/>
<text text-anchor="middle" x="197.973" y="-633.4" font-family="Times,serif" font-size="10.00" fill="#0000ff">playerSkills[PlayerRange]</text>
</g>
<!-- node15&#45;&gt;node17 -->
<g id="edge16" class="edge">
<title>node15-&gt;node17</title>
<path fill="none" stroke="#000000" d="M197.973,-691.3551C197.973,-683.2828 197.973,-673.5764 197.973,-664.5817"/>
<polygon fill="#000000" stroke="#000000" points="201.4731,-664.4903 197.973,-654.4904 194.4731,-664.4904 201.4731,-664.4903"/>
</g>
<!-- node16 -->
<g id="node17" class="node">
<title>node16</title>
<path fill="transparent" stroke="transparent" d="M248.973,-809C248.973,-809 218.973,-809 218.973,-809 212.973,-809 206.973,-803 206.973,-797 206.973,-797 206.973,-785 206.973,-785 206.973,-779 212.973,-773 218.973,-773 218.973,-773 248.973,-773 248.973,-773 254.973,-773 260.973,-779 260.973,-785 260.973,-785 260.973,-797 260.973,-797 260.973,-803 254.973,-809 248.973,-809"/>
<text text-anchor="middle" x="233.973" y="-788.3" font-family="Times,serif" font-size="9.00" fill="#000000">9</text>
</g>
<!-- node16&#45;&gt;node15 -->
<g id="edge15" class="edge">
<title>node16-&gt;node15</title>
<path fill="none" stroke="#000000" d="M225.9834,-772.8903C221.3226,-762.3259 215.3489,-748.7854 210.1163,-736.9247"/>
<polygon fill="#000000" stroke="#000000" points="213.1789,-735.1955 205.9402,-727.4591 206.7745,-738.021 213.1789,-735.1955"/>
<text text-anchor="middle" x="230.5186" y="-747.8" font-family="Times,serif" font-size="8.00" fill="#d3d3d3">variance</text>
</g>
<!-- node17&#45;&gt;node0 -->
<g id="edge17" class="edge">
<title>node17-&gt;node0</title>
<path fill="none" stroke="#000000" d="M168.3101,-618.3551C149.8483,-607.1241 126.1863,-592.7298 107.7106,-581.4904"/>
</g>
<!-- node17&#45;&gt;node4 -->
<g id="edge18" class="edge">
<title>node17-&gt;node4</title>
<path fill="none" stroke="#000000" d="M228.1303,-618.3551C246.8998,-607.1241 270.9561,-592.7298 289.7398,-581.4904"/>
</g>
</g>
</svg>